<svg width="27" height="32" viewBox="0 0 27 32" fill="none" xmlns="http://www.w3.org/2000/svg">
<path d="M5.95337 8.55817C5.95337 8.26212 6.07098 7.97819 6.28032 7.76884C6.48966 7.5595 6.77359 7.44189 7.06965 7.44189H18.9766C19.2727 7.44189 19.5566 7.5595 19.766 7.76884C19.9753 7.97819 20.0929 8.26212 20.0929 8.55817C20.0929 8.85423 19.9753 9.13816 19.766 9.3475C19.5566 9.55685 19.2727 9.67445 18.9766 9.67445H7.06965C6.77359 9.67445 6.48966 9.55685 6.28032 9.3475C6.07098 9.13816 5.95337 8.85423 5.95337 8.55817ZM7.06965 12.6512C6.77359 12.6512 6.48966 12.7688 6.28032 12.9781C6.07098 13.1875 5.95337 13.4714 5.95337 13.7675C5.95337 14.0635 6.07098 14.3475 6.28032 14.5568C6.48966 14.7661 6.77359 14.8838 7.06965 14.8838H14.5115C14.8076 14.8838 15.0915 14.7661 15.3008 14.5568C15.5102 14.3475 15.6278 14.0635 15.6278 13.7675C15.6278 13.4714 15.5102 13.1875 15.3008 12.9781C15.0915 12.7688 14.8076 12.6512 14.5115 12.6512H7.06965Z" fill="#EDDBBF"/>
<path fill-rule="evenodd" clip-rule="evenodd" d="M9.96465 0C7.93005 0 6.28837 -2.21785e-08 4.99795 0.17414C3.65842 0.352744 2.53023 0.739721 1.63423 1.63423C0.738233 2.53023 0.354233 3.65842 0.17414 4.99795C1.55249e-07 6.28837 0 7.93005 0 9.96465V22.0353C0 24.07 1.55249e-07 25.7116 0.17414 27.002C0.352744 28.3416 0.739721 29.4698 1.63423 30.3658C2.53023 31.2618 3.65842 31.6458 4.99795 31.8273C6.28837 32 7.93005 32 9.96465 32H16.0819C18.1165 32 19.7581 32 21.0486 31.8273C22.3881 31.6458 23.5163 31.2618 24.4123 30.3658C25.3083 29.4698 25.6923 28.3416 25.8739 27.002C26.0465 25.7116 26.0465 24.07 26.0465 22.0353V9.96465C26.0465 7.93005 26.0465 6.28837 25.8739 4.99795C25.6923 3.65842 25.3083 2.53023 24.4123 1.63423C23.5163 0.738233 22.3881 0.354233 21.0486 0.17414C19.7581 -2.21785e-08 18.1165 0 16.0819 0H9.96465ZM3.21488 3.2134C3.62716 2.80112 4.20465 2.53321 5.2986 2.38586C6.42084 2.23553 7.91219 2.23256 10.048 2.23256H16.0015C18.1373 2.23256 19.6272 2.23553 20.7524 2.38586C21.8448 2.53321 22.4223 2.8026 22.8346 3.2134C23.2469 3.62567 23.5148 4.20316 23.6621 5.29712C23.8125 6.41935 23.8154 7.9107 23.8154 10.0465V20.8372H6.7453C5.52781 20.8372 4.6973 20.8372 3.98437 21.0277C3.35797 21.1971 2.76538 21.473 2.23256 21.8433V10.0465C2.23256 7.9107 2.23554 6.41935 2.38586 5.29563C2.53321 4.20316 2.80409 3.62567 3.21488 3.2134ZM2.27274 25.3008C2.29507 25.8277 2.33079 26.2906 2.38586 26.7044C2.53321 27.7968 2.8026 28.3743 3.2134 28.7866C3.62567 29.1989 4.20316 29.4668 5.29712 29.6141C6.41935 29.7645 7.9107 29.7674 10.0465 29.7674H16C18.1358 29.7674 19.6257 29.7645 20.7509 29.6141C21.8433 29.4668 22.4208 29.1974 22.8331 28.7866C23.2454 28.3743 23.5133 27.7968 23.6607 26.7029C23.7842 25.7875 23.808 24.6266 23.8125 23.0698H6.91795C5.46233 23.0698 4.9533 23.0787 4.56186 23.1844C4.03728 23.3251 3.55479 23.5913 3.15599 23.96C2.7572 24.3287 2.45407 24.7889 2.27274 25.3008Z" fill="#EDDBBF"/>
</svg>
