<svg width="31" height="32" viewBox="0 0 31 32" fill="none" xmlns="http://www.w3.org/2000/svg">
<path d="M17.1195 0L15.2171 2.93905C12.762 0.945288 9.29394 0.327223 6.59881 0.881452C2.93107 1.63544 -0.147489 4.96224 0.0054653 9.77104C0.166704 14.8396 3.69025 18.5423 7.06993 21.5929C8.75978 23.1181 10.4941 24.5065 11.7797 25.754C14.3178 28.0574 15.5474 32 15.5474 32C15.5474 32 17.1998 27.9764 19.3152 25.943C20.6415 24.6784 22.3915 23.2645 24.1189 21.6875C27.5739 18.5334 31.1507 14.6525 30.9951 9.67664C30.9951 1.40593 22.8321 1.4935 19.688 4.36865C20.9894 3.67715 22.3901 3.53034 23.6481 3.8132C25.958 4.33274 27.8705 6.2432 27.9809 9.77124C28.0861 13.1469 25.3482 16.4041 22.0466 19.4178C20.396 20.9244 18.6958 22.288 17.2429 23.6732C16.4713 24.4092 16.1154 25.0604 15.5474 25.8233C14.9791 25.013 14.6271 24.3311 13.8519 23.5788C10.1244 19.3215 4.20219 14.7283 3.96551 9.67657C3.91702 5.46913 8.82174 4.36121 11.4581 6.22514L8.36503 7.93314C12.904 8.68672 16.7668 10.4595 20.8652 13.0445L17.1194 0H17.1195Z" fill="#EDDBBF"/>
</svg>
