<svg width="39" height="32" viewBox="0 0 39 32" fill="none" xmlns="http://www.w3.org/2000/svg">
<path d="M10.6006 11.3588C9.86075 11.3588 9.15122 11.6527 8.62808 12.1758C8.10493 12.6989 7.81104 13.4085 7.81104 14.1483C7.81104 14.8882 8.10493 15.5977 8.62808 16.1208C9.15122 16.644 9.86075 16.9379 10.6006 16.9379C11.3404 16.9379 12.05 16.644 12.5731 16.1208C13.0962 15.5977 13.3901 14.8882 13.3901 14.1483C13.3901 13.4085 13.0962 12.6989 12.5731 12.1758C12.05 11.6527 11.3404 11.3588 10.6006 11.3588ZM19.5272 11.3588C18.7873 11.3588 18.0778 11.6527 17.5546 12.1758C17.0315 12.6989 16.7376 13.4085 16.7376 14.1483C16.7376 14.8882 17.0315 15.5977 17.5546 16.1208C18.0778 16.644 18.7873 16.9379 19.5272 16.9379C20.267 16.9379 20.9765 16.644 21.4997 16.1208C22.0228 15.5977 22.3167 14.8882 22.3167 14.1483C22.3167 13.4085 22.0228 12.6989 21.4997 12.1758C20.9765 11.6527 20.267 11.3588 19.5272 11.3588ZM25.6642 14.1483C25.6642 13.4085 25.9581 12.6989 26.4812 12.1758C27.0044 11.6527 27.7139 11.3588 28.4537 11.3588C29.1936 11.3588 29.9031 11.6527 30.4262 12.1758C30.9494 12.6989 31.2433 13.4085 31.2433 14.1483C31.2433 14.8882 30.9494 15.5977 30.4262 16.1208C29.9031 16.644 29.1936 16.9379 28.4537 16.9379C27.7139 16.9379 27.0044 16.644 26.4812 16.1208C25.9581 15.5977 25.6642 14.8882 25.6642 14.1483Z" fill="#EDDBBF"/>
<path fill-rule="evenodd" clip-rule="evenodd" d="M28.6766 0.408121C22.6647 -0.104401 16.6214 -0.134252 10.6048 0.318856L10.1741 0.35233C7.40773 0.561098 4.82238 1.80722 2.93577 3.84115C1.04916 5.87508 0.00057434 8.54665 0 11.3209V30.3277C0.000255546 30.6171 0.075517 30.9014 0.21844 31.153C0.361363 31.4046 0.567065 31.6148 0.815473 31.7632C1.06388 31.9116 1.34651 31.993 1.63578 31.9996C1.92505 32.0061 2.21108 31.9376 2.46596 31.8006L11.1917 27.1119C11.5985 26.8933 12.0532 26.779 12.515 26.7794H32.5463C35.0725 26.7794 37.2372 24.9718 37.6902 22.488C38.6096 17.4512 38.681 12.2961 37.9044 7.23471L37.6768 5.74175C37.4744 4.42277 36.8345 3.21011 35.8599 2.29864C34.8853 1.38716 33.6326 0.829791 32.303 0.716088L28.6766 0.408121ZM10.8592 3.65739C16.6974 3.21615 22.5617 3.2445 28.3954 3.74219L32.0196 4.05239C33.2158 4.15505 34.1887 5.06333 34.3695 6.25056L34.5994 7.7413C35.3168 12.4353 35.2489 17.2159 34.3985 21.8877C34.3209 22.3215 34.0929 22.7141 33.7545 22.9965C33.4162 23.2789 32.9892 23.4331 32.5485 23.432H12.515C11.5009 23.4321 10.5026 23.6836 9.60945 24.1639L3.34746 27.5293V11.3209C3.34758 9.39088 4.07674 7.53218 5.38895 6.11694C6.70115 4.70169 8.49954 3.83437 10.424 3.68864L10.8592 3.65739Z" fill="#EDDBBF"/>
</svg>

