<svg width="41" height="32" viewBox="0 0 41 32" fill="none" xmlns="http://www.w3.org/2000/svg">
<path d="M5.97834 9.26179C5.97868 7.66491 6.39811 6.09524 7.19592 4.7051C7.99374 3.31496 9.14285 2.15155 10.5317 1.32777C11.9206 0.504003 13.5021 0.0478436 15.1228 0.00356295C16.7434 -0.0407177 18.3482 0.328384 19.7813 1.07505C21.2144 1.82172 22.4272 2.92059 23.3021 4.26503C24.1769 5.60948 24.684 7.15383 24.7742 8.74823C24.8644 10.3426 24.5347 11.9329 23.8169 13.3648C23.0992 14.7967 22.0179 16.0215 20.6779 16.9204C23.5636 17.9628 26.0665 19.832 27.8646 22.2874C29.6626 24.7428 30.6735 27.672 30.7671 30.698C30.7631 31.0243 30.6313 31.3364 30.3992 31.5692C30.1671 31.802 29.8526 31.9374 29.5215 31.9472C29.1904 31.957 28.8682 31.8403 28.6223 31.6217C28.3765 31.403 28.2259 31.0993 28.202 30.7738C28.1002 27.4919 26.705 24.3779 24.312 22.0919C21.919 19.8058 18.7164 18.5274 15.3827 18.5274C12.0491 18.5274 8.84642 19.8058 6.45344 22.0919C4.06046 24.3779 2.66522 27.4919 2.56339 30.7738C2.54627 31.1037 2.39867 31.4138 2.15223 31.6377C1.90578 31.8617 1.58008 31.9817 1.2449 31.972C0.909725 31.9623 0.591732 31.8237 0.359045 31.5859C0.126359 31.3481 -0.0025136 31.03 3.71554e-05 30.6997C0.0933222 27.6734 1.10405 24.7438 2.90213 22.2881C4.7002 19.8324 7.20332 17.9629 10.0893 16.9204C8.82228 16.0704 7.78539 14.9283 7.0689 13.5935C6.35241 12.2587 5.97802 10.7717 5.97834 9.26179ZM15.3836 2.52454C13.5694 2.52454 11.8296 3.23435 10.5468 4.49783C9.26406 5.76131 8.54341 7.47496 8.54341 9.26179C8.54341 11.0486 9.26406 12.7623 10.5468 14.0257C11.8296 15.2892 13.5694 15.999 15.3836 15.999C17.1977 15.999 18.9375 15.2892 20.2203 14.0257C21.5031 12.7623 22.2237 11.0486 22.2237 9.26179C22.2237 7.47496 21.5031 5.76131 20.2203 4.49783C18.9375 3.23435 17.1977 2.52454 15.3836 2.52454ZM29.5598 9.26179C29.3079 9.26179 29.0605 9.27863 28.8177 9.31231C28.6481 9.34221 28.4742 9.33818 28.3063 9.30044C28.1384 9.2627 27.9799 9.19203 27.8403 9.09266C27.7007 8.99328 27.5829 8.86723 27.4938 8.72203C27.4048 8.57683 27.3463 8.41544 27.322 8.24751C27.2976 8.07957 27.3078 7.90852 27.3521 7.74457C27.3963 7.58061 27.4736 7.4271 27.5793 7.29321C27.6851 7.15931 27.8171 7.04777 27.9676 6.96523C28.1181 6.88269 28.2839 6.83085 28.4551 6.8128C30.1559 6.5706 31.8901 6.89229 33.385 7.72725C34.8798 8.56221 36.0503 9.86303 36.7122 11.425C37.3742 12.987 37.4901 14.7214 37.0417 16.3553C36.5932 17.9893 35.6059 19.43 34.2351 20.4507C36.2502 21.3394 37.9611 22.7834 39.1615 24.6086C40.3619 26.4338 41.0004 28.5621 41 30.7368C41 31.0718 40.8649 31.3931 40.6244 31.63C40.3838 31.8669 40.0576 32 39.7175 32C39.3773 32 39.0511 31.8669 38.8106 31.63C38.5701 31.3931 38.4349 31.0718 38.4349 30.7368C38.4356 28.8571 37.821 27.0273 36.6825 25.5188C35.544 24.0103 33.9422 22.9034 32.1146 22.3624L31.2015 22.0929V19.27L31.9026 18.9179C32.9419 18.3994 33.7734 17.551 34.263 16.5098C34.7525 15.4685 34.8715 14.2952 34.6007 13.1791C34.33 12.063 33.6852 11.0694 32.7706 10.3587C31.856 9.6479 30.7248 9.26148 29.5598 9.26179Z" fill="#EDDBBF"/>
</svg>
