<svg width="32" height="32" viewBox="0 0 32 32" fill="none" xmlns="http://www.w3.org/2000/svg">
<path d="M16 28.8C19.3948 28.8 22.6505 27.4514 25.051 25.051C27.4514 22.6505 28.8 19.3948 28.8 16C28.8 12.6052 27.4514 9.3495 25.051 6.94903C22.6505 4.54857 19.3948 3.2 16 3.2C12.6052 3.2 9.3495 4.54857 6.94903 6.94903C4.54857 9.3495 3.2 12.6052 3.2 16C3.2 19.3948 4.54857 22.6505 6.94903 25.051C9.3495 27.4514 12.6052 28.8 16 28.8ZM16 32C7.1632 32 0 24.8368 0 16C0 7.1632 7.1632 0 16 0C24.8368 0 32 7.1632 32 16C32 24.8368 24.8368 32 16 32ZM16 22.4C17.6974 22.4 19.3253 21.7257 20.5255 20.5255C21.7257 19.3253 22.4 17.6974 22.4 16C22.4 14.3026 21.7257 12.6747 20.5255 11.4745C19.3253 10.2743 17.6974 9.6 16 9.6C14.3026 9.6 12.6747 10.2743 11.4745 11.4745C10.2743 12.6747 9.6 14.3026 9.6 16C9.6 17.6974 10.2743 19.3253 11.4745 20.5255C12.6747 21.7257 14.3026 22.4 16 22.4ZM16 25.6C13.4539 25.6 11.0121 24.5886 9.21178 22.7882C7.41143 20.9879 6.4 18.5461 6.4 16C6.4 13.4539 7.41143 11.0121 9.21178 9.21178C11.0121 7.41143 13.4539 6.4 16 6.4C18.5461 6.4 20.9879 7.41143 22.7882 9.21178C24.5886 11.0121 25.6 13.4539 25.6 16C25.6 18.5461 24.5886 20.9879 22.7882 22.7882C20.9879 24.5886 18.5461 25.6 16 25.6ZM16 19.2C15.1513 19.2 14.3374 18.8629 13.7373 18.2627C13.1371 17.6626 12.8 16.8487 12.8 16C12.8 15.1513 13.1371 14.3374 13.7373 13.7373C14.3374 13.1371 15.1513 12.8 16 12.8C16.8487 12.8 17.6626 13.1371 18.2627 13.7373C18.8629 14.3374 19.2 15.1513 19.2 16C19.2 16.8487 18.8629 17.6626 18.2627 18.2627C17.6626 18.8629 16.8487 19.2 16 19.2Z" fill="#EDDBBF"/>
</svg>
