<svg width="37" height="35" viewBox="0 0 37 35" fill="none" xmlns="http://www.w3.org/2000/svg">
<path d="M11.875 27.885C11.875 30.848 9.49499 33.25 6.56344 33.25C3.62811 33.25 1.25 30.848 1.25 27.885C1.25 24.9239 3.63 22.5219 6.56344 22.5219C9.49688 22.5219 11.875 24.9221 11.875 27.885ZM11.875 27.885V4.94176C11.875 3.96289 12.6192 3.14591 13.592 3.05743L33.1892 1.25781C33.4515 1.23392 33.7159 1.26496 33.9654 1.34893C34.2149 1.43289 34.4441 1.56793 34.6381 1.74537C34.8322 1.92282 34.9869 2.13874 35.0922 2.37929C35.1976 2.61983 35.2513 2.87968 35.25 3.14214V25.739C35.25 28.7001 32.87 31.104 29.9384 31.104C27.0031 31.104 24.625 28.7001 24.625 25.739C24.625 22.7779 27.005 20.3741 29.9384 20.3741C32.8719 20.3741 35.25 22.7798 35.25 25.7428" stroke="#EDDBBF" stroke-width="2.5" stroke-linecap="round" stroke-linejoin="round"/>
</svg>
