<svg width="24" height="32" viewBox="0 0 24 32" fill="none" xmlns="http://www.w3.org/2000/svg">
<path d="M4.00732 3.19983H22.0073V4.74983H4.00732V3.19983Z" fill="#EDDBBF"/>
<path d="M23.0075 6H3.86751C3.61231 5.99638 3.36049 5.94112 3.12723 5.83753C2.89397 5.73395 2.68411 5.5842 2.5103 5.3973C2.33649 5.21041 2.20233 4.99025 2.11592 4.7501C2.02951 4.50995 1.99263 4.25479 2.00751 4C2.00627 3.49296 2.19766 3.00436 2.54296 2.63307C2.88827 2.26177 3.36171 2.03549 3.86751 2H23.0075C23.2727 2 23.5271 1.89464 23.7146 1.70711C23.9022 1.51957 24.0075 1.26522 24.0075 1C24.0075 0.734784 23.9022 0.48043 23.7146 0.292893C23.5271 0.105357 23.2727 0 23.0075 0H3.86751C2.8311 0.0362965 1.84929 0.473694 1.12916 1.21994C0.409031 1.96619 0.00687479 2.96295 0.00751018 4C-0.00250339 4.16318 -0.00250339 4.32682 0.00751018 4.49C-0.00212464 4.56971 -0.00212464 4.65029 0.00751018 4.73V28C0.00687479 29.037 0.409031 30.0338 1.12916 30.7801C1.84929 31.5263 2.8311 31.9637 3.86751 32H23.0075C23.2727 32 23.5271 31.8946 23.7146 31.7071C23.9022 31.5196 24.0075 31.2652 24.0075 31V7.07C24.0081 6.79794 23.905 6.53587 23.7193 6.33711C23.5335 6.13834 23.279 6.0178 23.0075 6ZM22.0075 30H3.86751C3.36171 29.9645 2.88827 29.7382 2.54296 29.3669C2.19766 28.9956 2.00627 28.507 2.00751 28V7.55C2.5761 7.86367 3.21842 8.01907 3.86751 8H22.0075V30Z" fill="#EDDBBF"/>
</svg>
